<?xml version="1.0" standalone="no"?><!DOCTYPE svg PUBLIC "-//W3C//DTD SVG 1.1//EN" "http://www.w3.org/Graphics/SVG/1.1/DTD/svg11.dtd"><svg t="1661779356823" class="icon" viewBox="0 0 1024 1024" version="1.1" xmlns="http://www.w3.org/2000/svg" p-id="1614" xmlns:xlink="http://www.w3.org/1999/xlink" width="200" height="200"><path d="M405.333333 597.290667a32.512 32.512 0 0 1-20.906666-7.68 31.829333 31.829333 0 0 1-9.813334-33.706667l106.666667-341.333333a30.933333 30.933333 0 0 1 28.416-22.229334h2.133333a31.872 31.872 0 0 1 29.056 18.858667l106.666667 234.666667a31.786667 31.786667 0 0 1-14.933333 41.813333l-213.333334 106.666667a39.296 39.296 0 0 1-13.952 2.944z m112.213334-283.733334l-59.306667 189.482667 118.613333-59.349333z" p-id="1615"></path><path d="M565.76 659.626667l-320-106.666667a32.128 32.128 0 0 1-21.845333-27.989333 31.744 31.744 0 0 1 17.493333-30.72l170.666667-85.333334a32.554667 32.554667 0 0 1 43.093333 14.506667 31.786667 31.786667 0 0 1-14.506667 43.093333l-101.546666 50.602667 233.386666 77.653333 116.053334-64.426666-97.706667-32.426667a32.128 32.128 0 1 1 20.053333-61.013333l167.253334 55.04a32.128 32.128 0 0 1 5.546666 58.453333l-192 106.666667a30.336 30.336 0 0 1-15.786666 4.266666 28.672 28.672 0 0 1-10.154667-1.706666z" p-id="1616"></path><path d="M483.84 793.6l-106.666667-199.68a31.914667 31.914667 0 0 1 13.184-43.52 31.914667 31.914667 0 0 1 43.562667 13.184l71.637333 134.016 19.2-57.6a32 32 0 0 1 60.586667 20.48l-42.666667 128a32.341333 32.341333 0 0 1-27.733333 21.76 8.533333 8.533333 0 0 1-2.986667 0.426667 31.402667 31.402667 0 0 1-28.117333-17.066667z" p-id="1617"></path><path d="M512 970.666667A458.666667 458.666667 0 1 1 970.666667 512 459.178667 459.178667 0 0 1 512 970.666667z m0-853.333334A394.666667 394.666667 0 1 0 906.666667 512 395.093333 395.093333 0 0 0 512 117.333333z" p-id="1618"></path></svg>